<svg aria-hidden="true" style="position: absolute; width: 0; height: 0; overflow: hidden;" version="1.1" xmlns="http://www.w3.org/2000/svg" xmlns:xlink="http://www.w3.org/1999/xlink">
<defs>
<symbol id="icon-Arrow-Left" viewBox="0 0 32 32">
<path fill="#00113b" style="fill: var(--color1, #00113b)" d="M16.943 23.057l-5.724-5.724h12.781v-2.667h-12.781l5.724-5.724-1.885-1.885-8.943 8.943 8.943 8.943 1.885-1.885z"></path>
</symbol>
<symbol id="icon-Arrow-Right" viewBox="0 0 32 32">
<path fill="#00113b" style="fill: var(--color1, #00113b)" d="M15.057 23.057l1.885 1.885 8.943-8.943-8.943-8.943-1.885 1.885 5.724 5.724h-12.781v2.667h12.781l-5.724 5.724z"></path>
</symbol>
<symbol id="icon-Arrow" viewBox="0 0 32 32">
<path fill="#00113b" style="fill: var(--color1, #00113b)" d="M20.561 16c0 0.287-0.109 0.573-0.328 0.792l-6.88 6.88c-0.438 0.438-1.147 0.438-1.585 0s-0.437-1.147 0-1.585l6.088-6.087-6.087-6.087c-0.437-0.438-0.437-1.147 0-1.584s1.147-0.438 1.585 0l6.88 6.879c0.219 0.219 0.328 0.505 0.328 0.792z"></path>
</symbol>
<symbol id="icon-Building" viewBox="0 0 32 32">
<path fill="#00113b" style="fill: var(--color1, #00113b)" d="M28 9.333h-8c-0.354 0-0.693 0.14-0.943 0.391s-0.391 0.589-0.391 0.943v4h-2.667v-9.333c0-0.354-0.141-0.693-0.391-0.943s-0.589-0.391-0.943-0.391h-10.667c-0.354 0-0.693 0.14-0.943 0.391s-0.391 0.589-0.391 0.943v21.333c0 0.354 0.14 0.693 0.391 0.943s0.589 0.391 0.943 0.391h24c0.354 0 0.693-0.141 0.943-0.391s0.391-0.589 0.391-0.943v-16c0-0.354-0.141-0.693-0.391-0.943s-0.589-0.391-0.943-0.391zM10.667 8h2.667v2.667h-2.667v-2.667zM8 21.333h-2.667v-2.667h2.667v2.667zM8 16h-2.667v-2.667h2.667v2.667zM8 10.667h-2.667v-2.667h2.667v2.667zM13.333 21.333h-2.667v-2.667h2.667v2.667zM13.333 16h-2.667v-2.667h2.667v2.667zM25.333 21.333h-2.667v-2.667h2.667v2.667zM25.333 16h-2.667v-2.667h2.667v2.667z"></path>
</symbol>
<symbol id="icon-Building-1" viewBox="0 0 32 32">
<path fill="#00113b" style="fill: var(--color1, #00113b)" d="M25.333 2.667h-13.333c-1.471 0-2.667 1.196-2.667 2.667v7.448l-6.276 6.276c-0.186 0.187-0.313 0.424-0.365 0.683s-0.025 0.527 0.076 0.77 0.272 0.452 0.491 0.598c0.219 0.147 0.477 0.225 0.741 0.225v6.667c0 0.354 0.14 0.693 0.391 0.943s0.589 0.391 0.943 0.391h21.333c0.354 0 0.693-0.141 0.943-0.391s0.391-0.589 0.391-0.943v-22.667c0-1.471-1.196-2.667-2.667-2.667zM14.666 26.667h-8v-7.448l4-4 4 4v7.448zM25.333 26.667h-8v-5.333c0.264 0.001 0.522-0.077 0.742-0.224s0.391-0.355 0.492-0.599c0.101-0.244 0.127-0.512 0.075-0.771s-0.179-0.496-0.366-0.683l-6.276-6.276v-7.448h13.333v21.333z"></path>
<path fill="#00113b" style="fill: var(--color1, #00113b)" d="M14.667 8h2.667v2.667h-2.667v-2.667zM20 8h2.667v2.667h-2.667v-2.667zM20 13.375h2.667v2.625h-2.667v-2.625zM20 18.667h2.667v2.667h-2.667v-2.667zM9.333 20h2.667v2.667h-2.667v-2.667z"></path>
</symbol>
<symbol id="icon-Cancel" viewBox="0 0 32 32">
<path fill="#00113b" style="fill: var(--color1, #00113b)" d="M21.589 8.458l-5.657 5.656-5.656-5.656-1.885 1.885 5.656 5.656-5.656 5.656 1.885 1.885 5.656-5.656 5.657 5.656 1.885-1.885-5.656-5.656 5.656-5.656-1.885-1.885z"></path>
</symbol>
<symbol id="icon-Chart" viewBox="0 0 32 32">
<path fill="#00113b" style="fill: var(--color1, #00113b)" d="M8 28h-4c-0.354 0-0.693-0.141-0.943-0.391s-0.391-0.589-0.391-0.943v-10.667c0-0.354 0.14-0.693 0.391-0.943s0.589-0.391 0.943-0.391h4c0.354 0 0.693 0.141 0.943 0.391s0.391 0.589 0.391 0.943v10.667c0 0.354-0.14 0.693-0.391 0.943s-0.589 0.391-0.943 0.391zM17.333 28h-4c-0.354 0-0.693-0.141-0.943-0.391s-0.391-0.589-0.391-0.943v-22.667c0-0.354 0.14-0.693 0.391-0.943s0.589-0.391 0.943-0.391h4c0.354 0 0.693 0.14 0.943 0.391s0.391 0.589 0.391 0.943v22.667c0 0.354-0.141 0.693-0.391 0.943s-0.589 0.391-0.943 0.391zM26.667 28h-4c-0.354 0-0.693-0.141-0.943-0.391s-0.391-0.589-0.391-0.943v-14.667c0-0.354 0.141-0.693 0.391-0.943s0.589-0.391 0.943-0.391h4c0.354 0 0.693 0.14 0.943 0.391s0.391 0.589 0.391 0.943v14.667c0 0.354-0.141 0.693-0.391 0.943s-0.589 0.391-0.943 0.391z"></path>
</symbol>
<symbol id="icon-dekstop" viewBox="0 0 32 32">
<path fill="#00113b" style="fill: var(--color1, #00113b)" d="M26.667 4h-21.333c-1.471 0-2.667 1.196-2.667 2.667v14.667c0 1.471 1.196 2.667 2.667 2.667h9.333v2.667h-4v2.667h10.667v-2.667h-4v-2.667h9.333c1.471 0 2.667-1.196 2.667-2.667v-14.667c0-1.471-1.196-2.667-2.667-2.667zM5.333 18.667v-12h21.333l0.003 12h-21.336z"></path>
</symbol>
<symbol id="icon-Logo" viewBox="0 0 32 32">
<path fill="#fff" style="fill: var(--color2, #fff)" d="M30.236 7.313c-1.915-2.962-4.755-5.208-8.078-6.389s-6.943-1.231-10.298-0.142-6.255 3.255-8.251 6.163c-1.996 2.908-2.975 6.393-2.786 9.915s1.537 6.882 3.834 9.559 5.413 4.52 8.865 5.242c3.452 0.723 7.046 0.284 10.223-1.246s5.76-4.068 7.346-7.219l-8.574-4.317c-0.635 1.26-1.668 2.275-2.938 2.888s-2.708 0.788-4.089 0.498c-1.381-0.289-2.627-1.026-3.546-2.097s-1.458-2.415-1.533-3.824c-0.076-1.409 0.316-2.803 1.114-3.966s1.959-2.030 3.301-2.465c1.342-0.436 2.79-0.415 4.119 0.057s2.465 1.371 3.231 2.556l8.062-5.212z"></path>
</symbol>
<symbol id="icon-Email" viewBox="0 0 32 32">
<path fill="#00113b" style="fill: var(--color1, #00113b)" d="M26.667 5.333h-21.333c-1.471 0-2.667 1.196-2.667 2.667v16c0 1.471 1.196 2.667 2.667 2.667h21.333c1.471 0 2.667-1.196 2.667-2.667v-16c0-1.471-1.196-2.667-2.667-2.667zM26.667 8v0.681l-10.667 8.297-10.667-8.296v-0.683h21.333zM5.333 24v-11.941l9.848 7.66c0.233 0.183 0.522 0.283 0.819 0.283s0.585-0.1 0.819-0.283l9.848-7.66 0.003 11.941h-21.336z"></path>
</symbol>
<symbol id="icon-Facebook" viewBox="0 0 32 32">
<path fill="#00113b" style="fill: var(--color1, #00113b)" d="M17.863 27.996v-10.928h3.687l0.548-4.279h-4.235v-2.725c0-1.235 0.344-2.080 2.116-2.080h2.245v-3.815c-1.092-0.117-2.191-0.174-3.289-0.169-3.259 0-5.496 1.989-5.496 5.641v3.14h-3.663v4.279h3.671v10.936h4.416z"></path>
</symbol>
<symbol id="icon-Flame" viewBox="0 0 32 32">
<path fill="#00113b" style="fill: var(--color1, #00113b)" d="M16.772 3.191c-0.224-0.161-0.494-0.247-0.77-0.245s-0.545 0.090-0.767 0.253c-2.445 1.772-9.901 7.804-9.901 15.468 0 4.329 2.597 8.057 6.312 9.728-0.636-0.894-0.978-1.964-0.979-3.061-0.023-4.295 4.744-9.191 4.947-9.333 0.113-0.081 0.248-0.124 0.386-0.124s0.273 0.043 0.386 0.124c0.203 0.143 4.948 3.965 4.948 9.336 0 1.139-0.367 2.191-0.977 3.059 3.713-1.671 6.311-5.397 6.311-9.721 0-7.815-7.443-13.743-9.895-15.483z"></path>
</symbol>
<symbol id="icon-Instagram" viewBox="0 0 32 32">
<path fill="#00113b" style="fill: var(--color1, #00113b)" d="M15.999 9.836c-1.635 0-3.203 0.65-4.36 1.806s-1.806 2.724-1.806 4.36c0 1.635 0.65 3.203 1.806 4.359s2.724 1.806 4.36 1.806c1.635 0 3.203-0.65 4.36-1.806s1.806-2.724 1.806-4.359c0-1.635-0.65-3.203-1.806-4.36s-2.724-1.806-4.36-1.806zM15.999 20.005c-1.062 0-2.081-0.422-2.832-1.173s-1.173-1.77-1.173-2.832c0-1.062 0.422-2.081 1.173-2.832s1.77-1.173 2.832-1.173 2.081 0.422 2.832 1.173c0.751 0.751 1.173 1.77 1.173 2.832s-0.422 2.081-1.173 2.832c-0.751 0.751-1.77 1.173-2.832 1.173z"></path>
<path fill="#00113b" style="fill: var(--color1, #00113b)" d="M22.409 11.047c0.794 0 1.437-0.644 1.437-1.437s-0.643-1.437-1.437-1.437c-0.794 0-1.437 0.643-1.437 1.437s0.644 1.437 1.437 1.437z"></path>
<path fill="#00113b" style="fill: var(--color1, #00113b)" d="M27.377 8.149c-0.309-0.797-0.78-1.521-1.385-2.125s-1.329-1.076-2.126-1.384c-0.933-0.35-1.919-0.54-2.915-0.56-1.284-0.056-1.691-0.072-4.947-0.072s-3.673 0-4.947 0.072c-0.995 0.019-1.98 0.209-2.912 0.56-0.797 0.308-1.522 0.779-2.126 1.384s-1.076 1.328-1.384 2.126c-0.35 0.933-0.539 1.918-0.559 2.915-0.057 1.283-0.075 1.689-0.075 4.947 0 3.256 0 3.671 0.075 4.947 0.020 0.997 0.208 1.981 0.559 2.916 0.309 0.797 0.781 1.521 1.386 2.125s1.329 1.076 2.126 1.384c0.93 0.364 1.915 0.567 2.913 0.6 1.284 0.056 1.691 0.073 4.947 0.073s3.673 0 4.947-0.073c0.996-0.020 1.982-0.209 2.915-0.559 0.797-0.309 1.521-0.781 2.125-1.385s1.076-1.328 1.385-2.125c0.351-0.933 0.539-1.917 0.559-2.915 0.057-1.283 0.075-1.689 0.075-4.947s0-3.671-0.075-4.947c-0.016-1.010-0.205-2.010-0.561-2.956zM25.753 20.859c-0.009 0.768-0.149 1.53-0.415 2.251-0.2 0.518-0.507 0.989-0.9 1.382s-0.864 0.699-1.383 0.899c-0.713 0.265-1.466 0.405-2.227 0.415-1.267 0.059-1.624 0.073-4.872 0.073-3.251 0-3.583 0-4.873-0.073-0.76-0.009-1.513-0.15-2.225-0.415-0.52-0.199-0.993-0.504-1.388-0.897s-0.703-0.864-0.904-1.384c-0.262-0.713-0.402-1.466-0.415-2.225-0.057-1.267-0.071-1.624-0.071-4.872 0-3.249 0-3.581 0.071-4.873 0.009-0.768 0.149-1.529 0.415-2.249 0.407-1.052 1.24-1.88 2.292-2.283 0.713-0.264 1.465-0.404 2.225-0.415 1.268-0.057 1.624-0.073 4.873-0.073s3.583 0 4.872 0.073c0.761 0.009 1.514 0.149 2.227 0.415 0.519 0.2 0.989 0.507 1.383 0.9s0.7 0.864 0.9 1.383c0.262 0.713 0.402 1.466 0.415 2.225 0.057 1.268 0.072 1.624 0.072 4.873 0 3.248 0 3.597-0.057 4.872h-0.015v-0.001z"></path>
</symbol>
<symbol id="icon-Linkedin" viewBox="0 0 32 32">
<path fill="#00113b" style="fill: var(--color1, #00113b)" d="M6.644 9.595c1.611 0 2.917-1.306 2.917-2.917s-1.306-2.917-2.917-2.917c-1.611 0-2.917 1.306-2.917 2.917s1.306 2.917 2.917 2.917z"></path>
<path fill="#00113b" style="fill: var(--color1, #00113b)" d="M12.317 11.806v16.185h5.025v-8.004c0-2.112 0.397-4.157 3.016-4.157 2.583 0 2.615 2.415 2.615 4.291v7.872h5.028v-8.876c0-4.36-0.939-7.711-6.035-7.711-2.447 0-4.087 1.343-4.757 2.613h-0.068v-2.213h-4.824zM4.128 11.806h5.033v16.185h-5.033v-16.185z"></path>
</symbol>
<symbol id="icon-Menu" viewBox="0 0 32 32">
<path fill="#00113b" style="fill: var(--color1, #00113b)" d="M5.333 8h21.333v2.667h-21.333v-2.667zM5.333 14.667h21.333v2.667h-21.333v-2.667zM5.333 21.333h21.333v2.667h-21.333v-2.667z"></path>
</symbol>
<symbol id="icon-Message" viewBox="0 0 32 32">
<path fill="#00113b" style="fill: var(--color1, #00113b)" d="M26.667 2.667h-21.333c-1.471 0-2.667 1.196-2.667 2.667v16c0 1.471 1.196 2.667 2.667 2.667h4v5.023l8.369-5.023h8.964c1.471 0 2.667-1.196 2.667-2.667v-16c0-1.471-1.196-2.667-2.667-2.667zM26.667 21.333h-9.703l-4.964 2.977v-2.977h-6.667v-16h21.333v16z"></path>
<path fill="#00113b" style="fill: var(--color1, #00113b)" d="M9.333 9.333h13.333v2.667h-13.333v-2.667zM9.333 14.667h9.333v2.667h-9.333v-2.667z"></path>
</symbol>
<symbol id="icon-Mobile" viewBox="0 0 32 32">
<path fill="#00113b" style="fill: var(--color1, #00113b)" d="M22.667 2.667h-13.333c-1.471 0-2.667 1.196-2.667 2.667v21.333c0 1.471 1.196 2.667 2.667 2.667h13.333c1.471 0 2.667-1.196 2.667-2.667v-21.333c0-1.471-1.196-2.667-2.667-2.667zM9.333 22.665v-15.999h13.333l0.003 15.999h-13.336z"></path>
</symbol>
<symbol id="icon-Pen" viewBox="0 0 32 32">
<path fill="#00113b" style="fill: var(--color1, #00113b)" d="M15.45 9.331h-5.18c-0.547-0-1.082 0.168-1.53 0.482s-0.789 0.758-0.977 1.273l-5.013 13.789c-0.177 0.487-0.056 1.032 0.309 1.399l0.391 0.391 8.563-8.563c-0.001-0.035-0.011-0.069-0.011-0.104 0-0.396 0.117-0.782 0.337-1.111s0.532-0.585 0.898-0.737c0.366-0.151 0.768-0.191 1.155-0.114s0.744 0.268 1.024 0.547c0.28 0.28 0.47 0.636 0.547 1.024s0.037 0.79-0.114 1.156c-0.151 0.365-0.408 0.678-0.737 0.898s-0.716 0.337-1.111 0.337c-0.035 0-0.069-0.009-0.104-0.011l-8.563 8.563 0.391 0.391c0.179 0.18 0.406 0.304 0.654 0.359s0.506 0.038 0.745-0.050l13.789-5.015c0.514-0.187 0.959-0.528 1.273-0.977s0.482-0.983 0.482-1.53v-5.18l2.665-2.664-7.219-7.219-2.665 2.665zM26.587 12.081l-6.667-6.667 2.827-2.828 6.667 6.667-2.827 2.828z"></path>
</symbol>
<symbol id="icon-Phone" viewBox="0 0 32 32">
<path fill="#00113b" style="fill: var(--color1, #00113b)" d="M22.093 29.333c0.354 0.002 0.705-0.066 1.033-0.201s0.625-0.334 0.874-0.585l3.613-3.613c0.248-0.25 0.388-0.588 0.388-0.94s-0.139-0.69-0.388-0.94l-5.333-5.333c-0.25-0.248-0.588-0.388-0.94-0.388s-0.69 0.139-0.94 0.388l-2.133 2.12c-1.477-0.394-2.845-1.119-4-2.12-0.998-1.157-1.723-2.524-2.12-4l2.12-2.133c0.248-0.25 0.388-0.588 0.388-0.94s-0.139-0.69-0.388-0.94l-5.333-5.333c-0.25-0.248-0.588-0.388-0.94-0.388s-0.69 0.139-0.94 0.388l-3.6 3.627c-0.251 0.25-0.45 0.547-0.585 0.874s-0.204 0.678-0.202 1.032c0.121 5.123 2.168 10.012 5.733 13.693 3.681 3.565 8.57 5.612 13.693 5.733zM8 7.214l3.453 3.453-1.72 1.72c-0.163 0.153-0.285 0.344-0.355 0.556s-0.085 0.438-0.045 0.658c0.498 2.227 1.553 4.292 3.067 6 1.707 1.515 3.772 2.571 6 3.067 0.216 0.045 0.44 0.036 0.652-0.027s0.405-0.177 0.561-0.333l1.72-1.76 3.453 3.453-2.667 2.667c-4.422-0.114-8.641-1.878-11.827-4.947-3.076-3.187-4.846-7.412-4.96-11.84l2.667-2.667zM26.667 14.667h2.667c0.035-1.585-0.252-3.161-0.843-4.633s-1.473-2.808-2.595-3.929c-1.121-1.121-2.458-2.004-3.929-2.595s-3.047-0.878-4.633-0.843v2.667c1.237-0.043 2.47 0.169 3.622 0.623s2.198 1.14 3.073 2.015c0.875 0.875 1.561 1.921 2.015 3.073s0.666 2.384 0.623 3.622z"></path>
<path fill="#00113b" style="fill: var(--color1, #00113b)" d="M17.333 10.667c2.8 0 4 1.2 4 4h2.667c0-4.293-2.373-6.667-6.667-6.667v2.667z"></path>
</symbol>
<symbol id="icon-Play" viewBox="0 0 32 32">
<path fill="#00113b" style="fill: var(--color1, #00113b)" d="M16 2.667c-7.352 0-13.333 5.981-13.333 13.333s5.981 13.333 13.333 13.333c7.352 0 13.333-5.981 13.333-13.333s-5.981-13.333-13.333-13.333zM16 26.667c-5.881 0-10.667-4.785-10.667-10.667s4.785-10.667 10.667-10.667c5.881 0 10.667 4.785 10.667 10.667s-4.785 10.667-10.667 10.667z"></path>
<path fill="#00113b" style="fill: var(--color1, #00113b)" d="M12 22.667l10.667-6.667-10.667-6.667v13.333z"></path>
</symbol>
<symbol id="icon-Send" viewBox="0 0 32 32">
<path fill="#00113b" style="fill: var(--color1, #00113b)" d="M28.569 14.794l-22.667-10.667c-0.228-0.107-0.482-0.148-0.733-0.117s-0.487 0.133-0.682 0.293c-0.195 0.16-0.34 0.372-0.42 0.612s-0.089 0.497-0.028 0.741l1.616 6.465 10.344 3.879-10.344 3.879-1.616 6.465c-0.062 0.245-0.053 0.502 0.025 0.743s0.224 0.453 0.42 0.613c0.195 0.16 0.432 0.262 0.683 0.293s0.505-0.011 0.733-0.119l22.667-10.667c0.229-0.108 0.423-0.278 0.558-0.492s0.208-0.462 0.208-0.715c0-0.253-0.072-0.501-0.208-0.715s-0.329-0.384-0.558-0.492z"></path>
</symbol>
<symbol id="icon-Twitter" viewBox="0 0 32 32">
<path fill="#00113b" style="fill: var(--color1, #00113b)" d="M26.177 10.663c0.017 0.233 0.017 0.465 0.017 0.697 0 7.1-5.404 15.281-15.28 15.281-3.043 0-5.869-0.881-8.248-2.412 0.432 0.049 0.848 0.067 1.297 0.067 2.417 0.006 4.766-0.802 6.668-2.295-1.121-0.020-2.207-0.39-3.108-1.058s-1.57-1.6-1.915-2.666c0.332 0.049 0.665 0.083 1.015 0.083 0.481 0 0.965-0.067 1.415-0.183-1.216-0.246-2.31-0.905-3.095-1.866s-1.213-2.164-1.212-3.405v-0.067c0.716 0.399 1.547 0.648 2.427 0.681-0.737-0.49-1.342-1.155-1.76-1.935s-0.636-1.652-0.635-2.537c0-0.997 0.265-1.912 0.731-2.709 1.35 1.66 3.033 3.018 4.94 3.986s3.998 1.525 6.134 1.634c-0.083-0.4-0.133-0.815-0.133-1.231-0-0.705 0.138-1.404 0.408-2.056s0.665-1.244 1.164-1.743 1.091-0.894 1.743-1.164c0.652-0.27 1.35-0.408 2.056-0.408 1.547 0 2.943 0.648 3.924 1.696 1.202-0.232 2.355-0.671 3.408-1.297-0.401 1.241-1.24 2.293-2.361 2.96 1.066-0.122 2.109-0.402 3.092-0.832-0.735 1.071-1.645 2.010-2.692 2.777z"></path>
</symbol>
<symbol id="icon-User" viewBox="0 0 32 32">
<path fill="#00113b" style="fill: var(--color1, #00113b)" d="M16 2.667c-1.319 0-2.607 0.391-3.704 1.124s-1.951 1.774-2.455 2.992c-0.505 1.218-0.637 2.559-0.379 3.852s0.892 2.481 1.825 3.413c0.932 0.932 2.12 1.567 3.413 1.825s2.634 0.125 3.852-0.379 2.259-1.359 2.992-2.455c0.733-1.096 1.124-2.385 1.124-3.704 0-1.768-0.702-3.464-1.953-4.714s-2.946-1.953-4.714-1.953zM16 13.333c-0.791 0-1.565-0.235-2.222-0.674s-1.171-1.064-1.473-1.795-0.382-1.535-0.228-2.311c0.154-0.776 0.535-1.489 1.095-2.048s1.272-0.94 2.048-1.095c0.776-0.154 1.58-0.075 2.311 0.228s1.356 0.815 1.795 1.473c0.44 0.658 0.674 1.431 0.674 2.222 0 1.061-0.421 2.078-1.172 2.828s-1.768 1.172-2.828 1.172zM28 28v-1.333c0-2.475-0.983-4.849-2.734-6.6s-4.124-2.734-6.6-2.734h-5.333c-2.475 0-4.849 0.983-6.6 2.734s-2.734 4.124-2.734 6.6v1.333h2.667v-1.333c0-1.768 0.702-3.464 1.953-4.714s2.946-1.953 4.714-1.953h5.333c1.768 0 3.464 0.702 4.714 1.953s1.953 2.946 1.953 4.714v1.333h2.667z"></path>
</symbol>
</defs>
</svg>
